<mxfile host="Electron" modified="2025-08-13T16:59:13.444Z" agent="Mozilla/5.0 (Windows NT 10.0; Win64; x64) AppleWebKit/537.36 (KHTML, like Gecko) draw.io/21.5.0 Chrome/112.0.5615.204 Electron/24.5.1 Safari/537.36" etag="cRCfuFqyl0oa3g3cMVHT" version="21.5.0" type="device">
  <diagram name="Page-1" id="WuwCzdV0_A1Ge5S-a5f4">
    <mxGraphModel dx="3209" dy="2041" grid="1" gridSize="10" guides="1" tooltips="1" connect="1" arrows="1" fold="1" page="1" pageScale="1" pageWidth="850" pageHeight="1100" math="0" shadow="0">
      <root>
        <mxCell id="0" />
        <mxCell id="1" parent="0" />
        <mxCell id="1cV_lyGsoiaFO7_TiUyf-1" value="FoodItem" style="swimlane;fontStyle=1;align=center;verticalAlign=top;childLayout=stackLayout;horizontal=1;startSize=26;horizontalStack=0;resizeParent=1;resizeParentMax=0;resizeLast=0;collapsible=1;marginBottom=0;whiteSpace=wrap;html=1;" parent="1" vertex="1">
          <mxGeometry x="-195" y="-116" width="170" height="346" as="geometry">
            <mxRectangle x="290" y="390" width="90" height="30" as="alternateBounds" />
          </mxGeometry>
        </mxCell>
        <mxCell id="1cV_lyGsoiaFO7_TiUyf-72" value="+ foodTruckId" style="text;strokeColor=none;fillColor=none;align=left;verticalAlign=top;spacingLeft=4;spacingRight=4;overflow=hidden;rotatable=0;points=[[0,0.5],[1,0.5]];portConstraint=eastwest;whiteSpace=wrap;html=1;" parent="1cV_lyGsoiaFO7_TiUyf-1" vertex="1">
          <mxGeometry y="26" width="170" height="26" as="geometry" />
        </mxCell>
        <mxCell id="1cV_lyGsoiaFO7_TiUyf-2" value="+ foodInfo : FoodInfo" style="text;strokeColor=none;fillColor=none;align=left;verticalAlign=top;spacingLeft=4;spacingRight=4;overflow=hidden;rotatable=0;points=[[0,0.5],[1,0.5]];portConstraint=eastwest;whiteSpace=wrap;html=1;" parent="1cV_lyGsoiaFO7_TiUyf-1" vertex="1">
          <mxGeometry y="52" width="170" height="26" as="geometry" />
        </mxCell>
        <mxCell id="1cV_lyGsoiaFO7_TiUyf-10" value="+ price" style="text;strokeColor=none;fillColor=none;align=left;verticalAlign=top;spacingLeft=4;spacingRight=4;overflow=hidden;rotatable=0;points=[[0,0.5],[1,0.5]];portConstraint=eastwest;whiteSpace=wrap;html=1;" parent="1cV_lyGsoiaFO7_TiUyf-1" vertex="1">
          <mxGeometry y="78" width="170" height="26" as="geometry" />
        </mxCell>
        <mxCell id="1cV_lyGsoiaFO7_TiUyf-11" value="+ preparation Time" style="text;strokeColor=none;fillColor=none;align=left;verticalAlign=top;spacingLeft=4;spacingRight=4;overflow=hidden;rotatable=0;points=[[0,0.5],[1,0.5]];portConstraint=eastwest;whiteSpace=wrap;html=1;" parent="1cV_lyGsoiaFO7_TiUyf-1" vertex="1">
          <mxGeometry y="104" width="170" height="26" as="geometry" />
        </mxCell>
        <mxCell id="1cV_lyGsoiaFO7_TiUyf-12" value="+ taxable" style="text;strokeColor=none;fillColor=none;align=left;verticalAlign=top;spacingLeft=4;spacingRight=4;overflow=hidden;rotatable=0;points=[[0,0.5],[1,0.5]];portConstraint=eastwest;whiteSpace=wrap;html=1;" parent="1cV_lyGsoiaFO7_TiUyf-1" vertex="1">
          <mxGeometry y="130" width="170" height="26" as="geometry" />
        </mxCell>
        <mxCell id="1cV_lyGsoiaFO7_TiUyf-41" value="+ isVariatoinsOn" style="text;strokeColor=none;fillColor=none;align=left;verticalAlign=top;spacingLeft=4;spacingRight=4;overflow=hidden;rotatable=0;points=[[0,0.5],[1,0.5]];portConstraint=eastwest;whiteSpace=wrap;html=1;" parent="1cV_lyGsoiaFO7_TiUyf-1" vertex="1">
          <mxGeometry y="156" width="170" height="26" as="geometry" />
        </mxCell>
        <mxCell id="1cV_lyGsoiaFO7_TiUyf-13" value="+ variations : Variation[]" style="text;strokeColor=none;fillColor=none;align=left;verticalAlign=top;spacingLeft=4;spacingRight=4;overflow=hidden;rotatable=0;points=[[0,0.5],[1,0.5]];portConstraint=eastwest;whiteSpace=wrap;html=1;" parent="1cV_lyGsoiaFO7_TiUyf-1" vertex="1">
          <mxGeometry y="182" width="170" height="26" as="geometry" />
        </mxCell>
        <mxCell id="1cV_lyGsoiaFO7_TiUyf-42" value="+ isAddonsOn" style="text;strokeColor=none;fillColor=none;align=left;verticalAlign=top;spacingLeft=4;spacingRight=4;overflow=hidden;rotatable=0;points=[[0,0.5],[1,0.5]];portConstraint=eastwest;whiteSpace=wrap;html=1;" parent="1cV_lyGsoiaFO7_TiUyf-1" vertex="1">
          <mxGeometry y="208" width="170" height="26" as="geometry" />
        </mxCell>
        <mxCell id="1cV_lyGsoiaFO7_TiUyf-14" value="+ addons : Addon[]" style="text;strokeColor=none;fillColor=none;align=left;verticalAlign=top;spacingLeft=4;spacingRight=4;overflow=hidden;rotatable=0;points=[[0,0.5],[1,0.5]];portConstraint=eastwest;whiteSpace=wrap;html=1;" parent="1cV_lyGsoiaFO7_TiUyf-1" vertex="1">
          <mxGeometry y="234" width="170" height="26" as="geometry" />
        </mxCell>
        <mxCell id="1cV_lyGsoiaFO7_TiUyf-35" value="+ status :[draft,template,item]" style="text;strokeColor=none;fillColor=none;align=left;verticalAlign=top;spacingLeft=4;spacingRight=4;overflow=hidden;rotatable=0;points=[[0,0.5],[1,0.5]];portConstraint=eastwest;whiteSpace=wrap;html=1;" parent="1cV_lyGsoiaFO7_TiUyf-1" vertex="1">
          <mxGeometry y="260" width="170" height="26" as="geometry" />
        </mxCell>
        <mxCell id="1cV_lyGsoiaFO7_TiUyf-3" value="" style="line;strokeWidth=1;fillColor=none;align=left;verticalAlign=middle;spacingTop=-1;spacingLeft=3;spacingRight=3;rotatable=0;labelPosition=right;points=[];portConstraint=eastwest;strokeColor=inherit;" parent="1cV_lyGsoiaFO7_TiUyf-1" vertex="1">
          <mxGeometry y="286" width="170" height="8" as="geometry" />
        </mxCell>
        <mxCell id="90ezgeb9ci-VBysLMpnE-20" value="+ update()" style="text;strokeColor=none;fillColor=none;align=left;verticalAlign=top;spacingLeft=4;spacingRight=4;overflow=hidden;rotatable=0;points=[[0,0.5],[1,0.5]];portConstraint=eastwest;whiteSpace=wrap;html=1;" parent="1cV_lyGsoiaFO7_TiUyf-1" vertex="1">
          <mxGeometry y="294" width="170" height="26" as="geometry" />
        </mxCell>
        <mxCell id="1cV_lyGsoiaFO7_TiUyf-4" value="+ remove()" style="text;strokeColor=none;fillColor=none;align=left;verticalAlign=top;spacingLeft=4;spacingRight=4;overflow=hidden;rotatable=0;points=[[0,0.5],[1,0.5]];portConstraint=eastwest;whiteSpace=wrap;html=1;" parent="1cV_lyGsoiaFO7_TiUyf-1" vertex="1">
          <mxGeometry y="320" width="170" height="26" as="geometry" />
        </mxCell>
        <mxCell id="1cV_lyGsoiaFO7_TiUyf-5" value="FoodTruck" style="swimlane;fontStyle=1;align=center;verticalAlign=top;childLayout=stackLayout;horizontal=1;startSize=30;horizontalStack=0;resizeParent=1;resizeParentMax=0;resizeLast=0;collapsible=1;marginBottom=0;whiteSpace=wrap;html=1;" parent="1" vertex="1">
          <mxGeometry x="-330" y="340" width="160" height="160" as="geometry" />
        </mxCell>
        <mxCell id="1cV_lyGsoiaFO7_TiUyf-75" value="+ auth" style="text;strokeColor=none;fillColor=none;align=left;verticalAlign=top;spacingLeft=4;spacingRight=4;overflow=hidden;rotatable=0;points=[[0,0.5],[1,0.5]];portConstraint=eastwest;whiteSpace=wrap;html=1;" parent="1cV_lyGsoiaFO7_TiUyf-5" vertex="1">
          <mxGeometry y="30" width="160" height="26" as="geometry" />
        </mxCell>
        <mxCell id="1cV_lyGsoiaFO7_TiUyf-6" value="+ name" style="text;strokeColor=none;fillColor=none;align=left;verticalAlign=top;spacingLeft=4;spacingRight=4;overflow=hidden;rotatable=0;points=[[0,0.5],[1,0.5]];portConstraint=eastwest;whiteSpace=wrap;html=1;" parent="1cV_lyGsoiaFO7_TiUyf-5" vertex="1">
          <mxGeometry y="56" width="160" height="26" as="geometry" />
        </mxCell>
        <mxCell id="1cV_lyGsoiaFO7_TiUyf-74" value="+ description" style="text;strokeColor=none;fillColor=none;align=left;verticalAlign=top;spacingLeft=4;spacingRight=4;overflow=hidden;rotatable=0;points=[[0,0.5],[1,0.5]];portConstraint=eastwest;whiteSpace=wrap;html=1;" parent="1cV_lyGsoiaFO7_TiUyf-5" vertex="1">
          <mxGeometry y="82" width="160" height="26" as="geometry" />
        </mxCell>
        <mxCell id="1cV_lyGsoiaFO7_TiUyf-76" value="+ location" style="text;strokeColor=none;fillColor=none;align=left;verticalAlign=top;spacingLeft=4;spacingRight=4;overflow=hidden;rotatable=0;points=[[0,0.5],[1,0.5]];portConstraint=eastwest;whiteSpace=wrap;html=1;" parent="1cV_lyGsoiaFO7_TiUyf-5" vertex="1">
          <mxGeometry y="108" width="160" height="26" as="geometry" />
        </mxCell>
        <mxCell id="1cV_lyGsoiaFO7_TiUyf-77" value="+ phone" style="text;strokeColor=none;fillColor=none;align=left;verticalAlign=top;spacingLeft=4;spacingRight=4;overflow=hidden;rotatable=0;points=[[0,0.5],[1,0.5]];portConstraint=eastwest;whiteSpace=wrap;html=1;" parent="1cV_lyGsoiaFO7_TiUyf-5" vertex="1">
          <mxGeometry y="134" width="160" height="26" as="geometry" />
        </mxCell>
        <mxCell id="1cV_lyGsoiaFO7_TiUyf-15" value="FoodInfo" style="swimlane;fontStyle=1;align=center;verticalAlign=top;childLayout=stackLayout;horizontal=1;startSize=26;horizontalStack=0;resizeParent=1;resizeParentMax=0;resizeLast=0;collapsible=1;marginBottom=0;whiteSpace=wrap;html=1;fillColor=#1ba1e2;strokeColor=#006EAF;fontColor=#ffffff;" parent="1" vertex="1">
          <mxGeometry x="190" y="30" width="160" height="104" as="geometry" />
        </mxCell>
        <mxCell id="1cV_lyGsoiaFO7_TiUyf-16" value="+ name" style="text;strokeColor=none;fillColor=none;align=left;verticalAlign=top;spacingLeft=4;spacingRight=4;overflow=hidden;rotatable=0;points=[[0,0.5],[1,0.5]];portConstraint=eastwest;whiteSpace=wrap;html=1;" parent="1cV_lyGsoiaFO7_TiUyf-15" vertex="1">
          <mxGeometry y="26" width="160" height="26" as="geometry" />
        </mxCell>
        <mxCell id="1cV_lyGsoiaFO7_TiUyf-19" value="+ image" style="text;strokeColor=none;fillColor=none;align=left;verticalAlign=top;spacingLeft=4;spacingRight=4;overflow=hidden;rotatable=0;points=[[0,0.5],[1,0.5]];portConstraint=eastwest;whiteSpace=wrap;html=1;" parent="1cV_lyGsoiaFO7_TiUyf-15" vertex="1">
          <mxGeometry y="52" width="160" height="26" as="geometry" />
        </mxCell>
        <mxCell id="1cV_lyGsoiaFO7_TiUyf-20" value="+ description" style="text;strokeColor=none;fillColor=none;align=left;verticalAlign=top;spacingLeft=4;spacingRight=4;overflow=hidden;rotatable=0;points=[[0,0.5],[1,0.5]];portConstraint=eastwest;whiteSpace=wrap;html=1;" parent="1cV_lyGsoiaFO7_TiUyf-15" vertex="1">
          <mxGeometry y="78" width="160" height="26" as="geometry" />
        </mxCell>
        <mxCell id="1cV_lyGsoiaFO7_TiUyf-23" value="Variation" style="swimlane;fontStyle=1;align=center;verticalAlign=top;childLayout=stackLayout;horizontal=1;startSize=26;horizontalStack=0;resizeParent=1;resizeParentMax=0;resizeLast=0;collapsible=1;marginBottom=0;whiteSpace=wrap;html=1;fillColor=#1ba1e2;strokeColor=#006EAF;fontColor=#ffffff;" parent="1" vertex="1">
          <mxGeometry x="190" y="-190" width="160" height="182" as="geometry" />
        </mxCell>
        <mxCell id="1cV_lyGsoiaFO7_TiUyf-24" value="+ typeId" style="text;strokeColor=none;fillColor=none;align=left;verticalAlign=top;spacingLeft=4;spacingRight=4;overflow=hidden;rotatable=0;points=[[0,0.5],[1,0.5]];portConstraint=eastwest;whiteSpace=wrap;html=1;" parent="1cV_lyGsoiaFO7_TiUyf-23" vertex="1">
          <mxGeometry y="26" width="160" height="26" as="geometry" />
        </mxCell>
        <mxCell id="1cV_lyGsoiaFO7_TiUyf-52" value="+ name" style="text;strokeColor=none;fillColor=none;align=left;verticalAlign=top;spacingLeft=4;spacingRight=4;overflow=hidden;rotatable=0;points=[[0,0.5],[1,0.5]];portConstraint=eastwest;whiteSpace=wrap;html=1;" parent="1cV_lyGsoiaFO7_TiUyf-23" vertex="1">
          <mxGeometry y="52" width="160" height="26" as="geometry" />
        </mxCell>
        <mxCell id="1cV_lyGsoiaFO7_TiUyf-25" value="+ display" style="text;strokeColor=none;fillColor=none;align=left;verticalAlign=top;spacingLeft=4;spacingRight=4;overflow=hidden;rotatable=0;points=[[0,0.5],[1,0.5]];portConstraint=eastwest;whiteSpace=wrap;html=1;" parent="1cV_lyGsoiaFO7_TiUyf-23" vertex="1">
          <mxGeometry y="78" width="160" height="26" as="geometry" />
        </mxCell>
        <mxCell id="1cV_lyGsoiaFO7_TiUyf-26" value="+ description" style="text;strokeColor=none;fillColor=none;align=left;verticalAlign=top;spacingLeft=4;spacingRight=4;overflow=hidden;rotatable=0;points=[[0,0.5],[1,0.5]];portConstraint=eastwest;whiteSpace=wrap;html=1;" parent="1cV_lyGsoiaFO7_TiUyf-23" vertex="1">
          <mxGeometry y="104" width="160" height="26" as="geometry" />
        </mxCell>
        <mxCell id="1cV_lyGsoiaFO7_TiUyf-27" value="+ mandatory" style="text;strokeColor=none;fillColor=none;align=left;verticalAlign=top;spacingLeft=4;spacingRight=4;overflow=hidden;rotatable=0;points=[[0,0.5],[1,0.5]];portConstraint=eastwest;whiteSpace=wrap;html=1;" parent="1cV_lyGsoiaFO7_TiUyf-23" vertex="1">
          <mxGeometry y="130" width="160" height="26" as="geometry" />
        </mxCell>
        <mxCell id="1cV_lyGsoiaFO7_TiUyf-28" value="+ price" style="text;strokeColor=none;fillColor=none;align=left;verticalAlign=top;spacingLeft=4;spacingRight=4;overflow=hidden;rotatable=0;points=[[0,0.5],[1,0.5]];portConstraint=eastwest;whiteSpace=wrap;html=1;" parent="1cV_lyGsoiaFO7_TiUyf-23" vertex="1">
          <mxGeometry y="156" width="160" height="26" as="geometry" />
        </mxCell>
        <mxCell id="1cV_lyGsoiaFO7_TiUyf-29" value="Addon" style="swimlane;fontStyle=1;align=center;verticalAlign=top;childLayout=stackLayout;horizontal=1;startSize=26;horizontalStack=0;resizeParent=1;resizeParentMax=0;resizeLast=0;collapsible=1;marginBottom=0;whiteSpace=wrap;html=1;" parent="1" vertex="1">
          <mxGeometry x="-90" y="370" width="170" height="156" as="geometry" />
        </mxCell>
        <mxCell id="1cV_lyGsoiaFO7_TiUyf-30" value="+ name" style="text;strokeColor=none;fillColor=none;align=left;verticalAlign=top;spacingLeft=4;spacingRight=4;overflow=hidden;rotatable=0;points=[[0,0.5],[1,0.5]];portConstraint=eastwest;whiteSpace=wrap;html=1;" parent="1cV_lyGsoiaFO7_TiUyf-29" vertex="1">
          <mxGeometry y="26" width="170" height="26" as="geometry" />
        </mxCell>
        <mxCell id="1cV_lyGsoiaFO7_TiUyf-44" value="+ image" style="text;strokeColor=none;fillColor=none;align=left;verticalAlign=top;spacingLeft=4;spacingRight=4;overflow=hidden;rotatable=0;points=[[0,0.5],[1,0.5]];portConstraint=eastwest;whiteSpace=wrap;html=1;" parent="1cV_lyGsoiaFO7_TiUyf-29" vertex="1">
          <mxGeometry y="52" width="170" height="26" as="geometry" />
        </mxCell>
        <mxCell id="1cV_lyGsoiaFO7_TiUyf-45" value="+ description" style="text;strokeColor=none;fillColor=none;align=left;verticalAlign=top;spacingLeft=4;spacingRight=4;overflow=hidden;rotatable=0;points=[[0,0.5],[1,0.5]];portConstraint=eastwest;whiteSpace=wrap;html=1;" parent="1cV_lyGsoiaFO7_TiUyf-29" vertex="1">
          <mxGeometry y="78" width="170" height="26" as="geometry" />
        </mxCell>
        <mxCell id="1cV_lyGsoiaFO7_TiUyf-31" value="+ variants : String[]" style="text;strokeColor=none;fillColor=none;align=left;verticalAlign=top;spacingLeft=4;spacingRight=4;overflow=hidden;rotatable=0;points=[[0,0.5],[1,0.5]];portConstraint=eastwest;whiteSpace=wrap;html=1;" parent="1cV_lyGsoiaFO7_TiUyf-29" vertex="1">
          <mxGeometry y="104" width="170" height="26" as="geometry" />
        </mxCell>
        <mxCell id="1cV_lyGsoiaFO7_TiUyf-32" value="+ price" style="text;strokeColor=none;fillColor=none;align=left;verticalAlign=top;spacingLeft=4;spacingRight=4;overflow=hidden;rotatable=0;points=[[0,0.5],[1,0.5]];portConstraint=eastwest;whiteSpace=wrap;html=1;" parent="1cV_lyGsoiaFO7_TiUyf-29" vertex="1">
          <mxGeometry y="130" width="170" height="26" as="geometry" />
        </mxCell>
        <mxCell id="1cV_lyGsoiaFO7_TiUyf-46" value="VariationTypes" style="swimlane;fontStyle=1;align=center;verticalAlign=top;childLayout=stackLayout;horizontal=1;startSize=26;horizontalStack=0;resizeParent=1;resizeParentMax=0;resizeLast=0;collapsible=1;marginBottom=0;whiteSpace=wrap;html=1;" parent="1" vertex="1">
          <mxGeometry x="40" y="-300" width="170" height="52" as="geometry" />
        </mxCell>
        <mxCell id="1cV_lyGsoiaFO7_TiUyf-47" value="+ name" style="text;strokeColor=none;fillColor=none;align=left;verticalAlign=top;spacingLeft=4;spacingRight=4;overflow=hidden;rotatable=0;points=[[0,0.5],[1,0.5]];portConstraint=eastwest;whiteSpace=wrap;html=1;" parent="1cV_lyGsoiaFO7_TiUyf-46" vertex="1">
          <mxGeometry y="26" width="170" height="26" as="geometry" />
        </mxCell>
        <mxCell id="1cV_lyGsoiaFO7_TiUyf-53" value="Addon" style="swimlane;fontStyle=1;align=center;verticalAlign=top;childLayout=stackLayout;horizontal=1;startSize=26;horizontalStack=0;resizeParent=1;resizeParentMax=0;resizeLast=0;collapsible=1;marginBottom=0;whiteSpace=wrap;html=1;fillColor=#1ba1e2;strokeColor=#006EAF;fontColor=#ffffff;" parent="1" vertex="1">
          <mxGeometry x="190" y="170" width="160" height="156" as="geometry" />
        </mxCell>
        <mxCell id="1cV_lyGsoiaFO7_TiUyf-54" value="+ typeId" style="text;strokeColor=none;fillColor=none;align=left;verticalAlign=top;spacingLeft=4;spacingRight=4;overflow=hidden;rotatable=0;points=[[0,0.5],[1,0.5]];portConstraint=eastwest;whiteSpace=wrap;html=1;" parent="1cV_lyGsoiaFO7_TiUyf-53" vertex="1">
          <mxGeometry y="26" width="160" height="26" as="geometry" />
        </mxCell>
        <mxCell id="1cV_lyGsoiaFO7_TiUyf-55" value="+ name" style="text;strokeColor=none;fillColor=none;align=left;verticalAlign=top;spacingLeft=4;spacingRight=4;overflow=hidden;rotatable=0;points=[[0,0.5],[1,0.5]];portConstraint=eastwest;whiteSpace=wrap;html=1;" parent="1cV_lyGsoiaFO7_TiUyf-53" vertex="1">
          <mxGeometry y="52" width="160" height="26" as="geometry" />
        </mxCell>
        <mxCell id="1cV_lyGsoiaFO7_TiUyf-56" value="+ variant" style="text;strokeColor=none;fillColor=none;align=left;verticalAlign=top;spacingLeft=4;spacingRight=4;overflow=hidden;rotatable=0;points=[[0,0.5],[1,0.5]];portConstraint=eastwest;whiteSpace=wrap;html=1;" parent="1cV_lyGsoiaFO7_TiUyf-53" vertex="1">
          <mxGeometry y="78" width="160" height="26" as="geometry" />
        </mxCell>
        <mxCell id="1cV_lyGsoiaFO7_TiUyf-58" value="+ mandatory" style="text;strokeColor=none;fillColor=none;align=left;verticalAlign=top;spacingLeft=4;spacingRight=4;overflow=hidden;rotatable=0;points=[[0,0.5],[1,0.5]];portConstraint=eastwest;whiteSpace=wrap;html=1;" parent="1cV_lyGsoiaFO7_TiUyf-53" vertex="1">
          <mxGeometry y="104" width="160" height="26" as="geometry" />
        </mxCell>
        <mxCell id="1cV_lyGsoiaFO7_TiUyf-59" value="+ price" style="text;strokeColor=none;fillColor=none;align=left;verticalAlign=top;spacingLeft=4;spacingRight=4;overflow=hidden;rotatable=0;points=[[0,0.5],[1,0.5]];portConstraint=eastwest;whiteSpace=wrap;html=1;" parent="1cV_lyGsoiaFO7_TiUyf-53" vertex="1">
          <mxGeometry y="130" width="160" height="26" as="geometry" />
        </mxCell>
        <mxCell id="1cV_lyGsoiaFO7_TiUyf-60" value="" style="endArrow=diamondThin;endFill=1;endSize=24;html=1;rounded=0;" parent="1" source="1cV_lyGsoiaFO7_TiUyf-23" target="1cV_lyGsoiaFO7_TiUyf-1" edge="1">
          <mxGeometry width="160" relative="1" as="geometry">
            <mxPoint x="-40" y="150" as="sourcePoint" />
            <mxPoint x="120" y="150" as="targetPoint" />
          </mxGeometry>
        </mxCell>
        <mxCell id="1cV_lyGsoiaFO7_TiUyf-68" value="" style="endArrow=diamondThin;endFill=1;endSize=24;html=1;rounded=0;" parent="1" source="1cV_lyGsoiaFO7_TiUyf-15" target="1cV_lyGsoiaFO7_TiUyf-1" edge="1">
          <mxGeometry width="160" relative="1" as="geometry">
            <mxPoint x="200" y="77" as="sourcePoint" />
            <mxPoint x="90" y="77" as="targetPoint" />
          </mxGeometry>
        </mxCell>
        <mxCell id="1cV_lyGsoiaFO7_TiUyf-69" value="" style="endArrow=diamondThin;endFill=1;endSize=24;html=1;rounded=0;" parent="1" source="1cV_lyGsoiaFO7_TiUyf-53" target="1cV_lyGsoiaFO7_TiUyf-1" edge="1">
          <mxGeometry width="160" relative="1" as="geometry">
            <mxPoint x="200" y="-47" as="sourcePoint" />
            <mxPoint x="90" y="23" as="targetPoint" />
          </mxGeometry>
        </mxCell>
        <mxCell id="1cV_lyGsoiaFO7_TiUyf-70" value="" style="endArrow=open;endSize=12;dashed=1;html=1;rounded=0;" parent="1" source="1cV_lyGsoiaFO7_TiUyf-1" target="90ezgeb9ci-VBysLMpnE-12" edge="1">
          <mxGeometry width="160" relative="1" as="geometry">
            <mxPoint x="-40" y="150" as="sourcePoint" />
            <mxPoint x="-72.51918158567787" y="-282" as="targetPoint" />
          </mxGeometry>
        </mxCell>
        <mxCell id="1cV_lyGsoiaFO7_TiUyf-71" value="" style="endArrow=open;endSize=12;dashed=1;html=1;rounded=0;" parent="1" source="1cV_lyGsoiaFO7_TiUyf-53" target="1cV_lyGsoiaFO7_TiUyf-29" edge="1">
          <mxGeometry x="0.2857" y="25" width="160" relative="1" as="geometry">
            <mxPoint x="5" y="-70" as="sourcePoint" />
            <mxPoint x="5" y="-118" as="targetPoint" />
            <mxPoint as="offset" />
          </mxGeometry>
        </mxCell>
        <mxCell id="1cV_lyGsoiaFO7_TiUyf-73" value="" style="endArrow=diamondThin;endFill=0;endSize=24;html=1;rounded=0;" parent="1" source="1cV_lyGsoiaFO7_TiUyf-1" target="1cV_lyGsoiaFO7_TiUyf-5" edge="1">
          <mxGeometry width="160" relative="1" as="geometry">
            <mxPoint x="-30" y="110" as="sourcePoint" />
            <mxPoint x="130" y="110" as="targetPoint" />
          </mxGeometry>
        </mxCell>
        <mxCell id="1cV_lyGsoiaFO7_TiUyf-85" value="purchasedItem" style="swimlane;fontStyle=1;align=center;verticalAlign=top;childLayout=stackLayout;horizontal=1;startSize=26;horizontalStack=0;resizeParent=1;resizeParentMax=0;resizeLast=0;collapsible=1;marginBottom=0;whiteSpace=wrap;html=1;" parent="1" vertex="1">
          <mxGeometry x="-560" y="60" width="170" height="320" as="geometry" />
        </mxCell>
        <mxCell id="1cV_lyGsoiaFO7_TiUyf-98" value="+ owner" style="text;strokeColor=none;fillColor=none;align=left;verticalAlign=top;spacingLeft=4;spacingRight=4;overflow=hidden;rotatable=0;points=[[0,0.5],[1,0.5]];portConstraint=eastwest;whiteSpace=wrap;html=1;" parent="1cV_lyGsoiaFO7_TiUyf-85" vertex="1">
          <mxGeometry y="26" width="170" height="26" as="geometry" />
        </mxCell>
        <mxCell id="1cV_lyGsoiaFO7_TiUyf-109" value="+ orderId" style="text;strokeColor=none;fillColor=none;align=left;verticalAlign=top;spacingLeft=4;spacingRight=4;overflow=hidden;rotatable=0;points=[[0,0.5],[1,0.5]];portConstraint=eastwest;whiteSpace=wrap;html=1;" parent="1cV_lyGsoiaFO7_TiUyf-85" vertex="1">
          <mxGeometry y="52" width="170" height="26" as="geometry" />
        </mxCell>
        <mxCell id="90ezgeb9ci-VBysLMpnE-58" value="+ quantity" style="text;strokeColor=none;fillColor=none;align=left;verticalAlign=top;spacingLeft=4;spacingRight=4;overflow=hidden;rotatable=0;points=[[0,0.5],[1,0.5]];portConstraint=eastwest;whiteSpace=wrap;html=1;" parent="1cV_lyGsoiaFO7_TiUyf-85" vertex="1">
          <mxGeometry y="78" width="170" height="26" as="geometry" />
        </mxCell>
        <mxCell id="1cV_lyGsoiaFO7_TiUyf-86" value="+ foodItemId" style="text;strokeColor=none;fillColor=none;align=left;verticalAlign=top;spacingLeft=4;spacingRight=4;overflow=hidden;rotatable=0;points=[[0,0.5],[1,0.5]];portConstraint=eastwest;whiteSpace=wrap;html=1;" parent="1cV_lyGsoiaFO7_TiUyf-85" vertex="1">
          <mxGeometry y="104" width="170" height="26" as="geometry" />
        </mxCell>
        <mxCell id="90ezgeb9ci-VBysLMpnE-59" value="+ spiceLevel" style="text;strokeColor=none;fillColor=none;align=left;verticalAlign=top;spacingLeft=4;spacingRight=4;overflow=hidden;rotatable=0;points=[[0,0.5],[1,0.5]];portConstraint=eastwest;whiteSpace=wrap;html=1;" parent="1cV_lyGsoiaFO7_TiUyf-85" vertex="1">
          <mxGeometry y="130" width="170" height="26" as="geometry" />
        </mxCell>
        <mxCell id="1cV_lyGsoiaFO7_TiUyf-119" value="+ quantity" style="text;strokeColor=none;fillColor=none;align=left;verticalAlign=top;spacingLeft=4;spacingRight=4;overflow=hidden;rotatable=0;points=[[0,0.5],[1,0.5]];portConstraint=eastwest;whiteSpace=wrap;html=1;" parent="1cV_lyGsoiaFO7_TiUyf-85" vertex="1">
          <mxGeometry y="156" width="170" height="26" as="geometry" />
        </mxCell>
        <mxCell id="90ezgeb9ci-VBysLMpnE-60" value="+ size" style="text;strokeColor=none;fillColor=none;align=left;verticalAlign=top;spacingLeft=4;spacingRight=4;overflow=hidden;rotatable=0;points=[[0,0.5],[1,0.5]];portConstraint=eastwest;whiteSpace=wrap;html=1;" parent="1cV_lyGsoiaFO7_TiUyf-85" vertex="1">
          <mxGeometry y="182" width="170" height="26" as="geometry" />
        </mxCell>
        <mxCell id="1cV_lyGsoiaFO7_TiUyf-94" value="+ addons : Addon[]" style="text;strokeColor=none;fillColor=none;align=left;verticalAlign=top;spacingLeft=4;spacingRight=4;overflow=hidden;rotatable=0;points=[[0,0.5],[1,0.5]];portConstraint=eastwest;whiteSpace=wrap;html=1;" parent="1cV_lyGsoiaFO7_TiUyf-85" vertex="1">
          <mxGeometry y="208" width="170" height="26" as="geometry" />
        </mxCell>
        <mxCell id="1cV_lyGsoiaFO7_TiUyf-92" value="+ variations : Variation[]" style="text;strokeColor=none;fillColor=none;align=left;verticalAlign=top;spacingLeft=4;spacingRight=4;overflow=hidden;rotatable=0;points=[[0,0.5],[1,0.5]];portConstraint=eastwest;whiteSpace=wrap;html=1;" parent="1cV_lyGsoiaFO7_TiUyf-85" vertex="1">
          <mxGeometry y="234" width="170" height="26" as="geometry" />
        </mxCell>
        <mxCell id="1cV_lyGsoiaFO7_TiUyf-96" value="" style="line;strokeWidth=1;fillColor=none;align=left;verticalAlign=middle;spacingTop=-1;spacingLeft=3;spacingRight=3;rotatable=0;labelPosition=right;points=[];portConstraint=eastwest;strokeColor=inherit;" parent="1cV_lyGsoiaFO7_TiUyf-85" vertex="1">
          <mxGeometry y="260" width="170" height="8" as="geometry" />
        </mxCell>
        <mxCell id="90ezgeb9ci-VBysLMpnE-51" value="+ sendGift()" style="text;strokeColor=none;fillColor=none;align=left;verticalAlign=top;spacingLeft=4;spacingRight=4;overflow=hidden;rotatable=0;points=[[0,0.5],[1,0.5]];portConstraint=eastwest;whiteSpace=wrap;html=1;" parent="1cV_lyGsoiaFO7_TiUyf-85" vertex="1">
          <mxGeometry y="268" width="170" height="26" as="geometry" />
        </mxCell>
        <mxCell id="90ezgeb9ci-VBysLMpnE-57" value="+ redeem()" style="text;strokeColor=none;fillColor=none;align=left;verticalAlign=top;spacingLeft=4;spacingRight=4;overflow=hidden;rotatable=0;points=[[0,0.5],[1,0.5]];portConstraint=eastwest;whiteSpace=wrap;html=1;" parent="1cV_lyGsoiaFO7_TiUyf-85" vertex="1">
          <mxGeometry y="294" width="170" height="26" as="geometry" />
        </mxCell>
        <mxCell id="1cV_lyGsoiaFO7_TiUyf-100" value="cartItem" style="swimlane;fontStyle=1;align=center;verticalAlign=top;childLayout=stackLayout;horizontal=1;startSize=26;horizontalStack=0;resizeParent=1;resizeParentMax=0;resizeLast=0;collapsible=1;marginBottom=0;whiteSpace=wrap;html=1;" parent="1" vertex="1">
          <mxGeometry x="-660" y="-370" width="190" height="336" as="geometry" />
        </mxCell>
        <mxCell id="1cV_lyGsoiaFO7_TiUyf-110" value="+ owner" style="text;strokeColor=none;fillColor=none;align=left;verticalAlign=top;spacingLeft=4;spacingRight=4;overflow=hidden;rotatable=0;points=[[0,0.5],[1,0.5]];portConstraint=eastwest;whiteSpace=wrap;html=1;" parent="1cV_lyGsoiaFO7_TiUyf-100" vertex="1">
          <mxGeometry y="26" width="190" height="26" as="geometry" />
        </mxCell>
        <mxCell id="1cV_lyGsoiaFO7_TiUyf-111" value="+ foodItemId" style="text;strokeColor=none;fillColor=none;align=left;verticalAlign=top;spacingLeft=4;spacingRight=4;overflow=hidden;rotatable=0;points=[[0,0.5],[1,0.5]];portConstraint=eastwest;whiteSpace=wrap;html=1;" parent="1cV_lyGsoiaFO7_TiUyf-100" vertex="1">
          <mxGeometry y="52" width="190" height="26" as="geometry" />
        </mxCell>
        <mxCell id="1cV_lyGsoiaFO7_TiUyf-105" value="+ status : [&quot;Eat Now&quot;, &quot;Eat Later&quot;, &quot;Paid&quot;]" style="text;strokeColor=none;fillColor=none;align=left;verticalAlign=top;spacingLeft=4;spacingRight=4;overflow=hidden;rotatable=0;points=[[0,0.5],[1,0.5]];portConstraint=eastwest;whiteSpace=wrap;html=1;" parent="1cV_lyGsoiaFO7_TiUyf-100" vertex="1">
          <mxGeometry y="78" width="190" height="42" as="geometry" />
        </mxCell>
        <mxCell id="90ezgeb9ci-VBysLMpnE-45" value="+ quantity" style="text;strokeColor=none;fillColor=none;align=left;verticalAlign=top;spacingLeft=4;spacingRight=4;overflow=hidden;rotatable=0;points=[[0,0.5],[1,0.5]];portConstraint=eastwest;whiteSpace=wrap;html=1;" parent="1cV_lyGsoiaFO7_TiUyf-100" vertex="1">
          <mxGeometry y="120" width="190" height="26" as="geometry" />
        </mxCell>
        <mxCell id="90ezgeb9ci-VBysLMpnE-46" value="+ spiceLevel" style="text;strokeColor=none;fillColor=none;align=left;verticalAlign=top;spacingLeft=4;spacingRight=4;overflow=hidden;rotatable=0;points=[[0,0.5],[1,0.5]];portConstraint=eastwest;whiteSpace=wrap;html=1;" parent="1cV_lyGsoiaFO7_TiUyf-100" vertex="1">
          <mxGeometry y="146" width="190" height="26" as="geometry" />
        </mxCell>
        <mxCell id="90ezgeb9ci-VBysLMpnE-47" value="+ size" style="text;strokeColor=none;fillColor=none;align=left;verticalAlign=top;spacingLeft=4;spacingRight=4;overflow=hidden;rotatable=0;points=[[0,0.5],[1,0.5]];portConstraint=eastwest;whiteSpace=wrap;html=1;" parent="1cV_lyGsoiaFO7_TiUyf-100" vertex="1">
          <mxGeometry y="172" width="190" height="26" as="geometry" />
        </mxCell>
        <mxCell id="90ezgeb9ci-VBysLMpnE-49" value="+ addOns" style="text;strokeColor=none;fillColor=none;align=left;verticalAlign=top;spacingLeft=4;spacingRight=4;overflow=hidden;rotatable=0;points=[[0,0.5],[1,0.5]];portConstraint=eastwest;whiteSpace=wrap;html=1;" parent="1cV_lyGsoiaFO7_TiUyf-100" vertex="1">
          <mxGeometry y="198" width="190" height="26" as="geometry" />
        </mxCell>
        <mxCell id="90ezgeb9ci-VBysLMpnE-48" value="+ offers" style="text;strokeColor=none;fillColor=none;align=left;verticalAlign=top;spacingLeft=4;spacingRight=4;overflow=hidden;rotatable=0;points=[[0,0.5],[1,0.5]];portConstraint=eastwest;whiteSpace=wrap;html=1;" parent="1cV_lyGsoiaFO7_TiUyf-100" vertex="1">
          <mxGeometry y="224" width="190" height="26" as="geometry" />
        </mxCell>
        <mxCell id="1cV_lyGsoiaFO7_TiUyf-106" value="" style="line;strokeWidth=1;fillColor=none;align=left;verticalAlign=middle;spacingTop=-1;spacingLeft=3;spacingRight=3;rotatable=0;labelPosition=right;points=[];portConstraint=eastwest;strokeColor=inherit;" parent="1cV_lyGsoiaFO7_TiUyf-100" vertex="1">
          <mxGeometry y="250" width="190" height="8" as="geometry" />
        </mxCell>
        <mxCell id="kKQyqbDqY6j7t5272m3N-3" value="+ config()" style="text;strokeColor=none;fillColor=none;align=left;verticalAlign=top;spacingLeft=4;spacingRight=4;overflow=hidden;rotatable=0;points=[[0,0.5],[1,0.5]];portConstraint=eastwest;whiteSpace=wrap;html=1;" vertex="1" parent="1cV_lyGsoiaFO7_TiUyf-100">
          <mxGeometry y="258" width="190" height="26" as="geometry" />
        </mxCell>
        <mxCell id="90ezgeb9ci-VBysLMpnE-50" value="+ changeQuantity()" style="text;strokeColor=none;fillColor=none;align=left;verticalAlign=top;spacingLeft=4;spacingRight=4;overflow=hidden;rotatable=0;points=[[0,0.5],[1,0.5]];portConstraint=eastwest;whiteSpace=wrap;html=1;" parent="1cV_lyGsoiaFO7_TiUyf-100" vertex="1">
          <mxGeometry y="284" width="190" height="26" as="geometry" />
        </mxCell>
        <mxCell id="90ezgeb9ci-VBysLMpnE-29" value="+ delete()" style="text;strokeColor=none;fillColor=none;align=left;verticalAlign=top;spacingLeft=4;spacingRight=4;overflow=hidden;rotatable=0;points=[[0,0.5],[1,0.5]];portConstraint=eastwest;whiteSpace=wrap;html=1;" parent="1cV_lyGsoiaFO7_TiUyf-100" vertex="1">
          <mxGeometry y="310" width="190" height="26" as="geometry" />
        </mxCell>
        <mxCell id="1cV_lyGsoiaFO7_TiUyf-112" value="" style="endArrow=open;endSize=12;dashed=1;html=1;rounded=0;" parent="1" source="1cV_lyGsoiaFO7_TiUyf-85" target="1cV_lyGsoiaFO7_TiUyf-1" edge="1">
          <mxGeometry width="160" relative="1" as="geometry">
            <mxPoint x="200" y="-105" as="sourcePoint" />
            <mxPoint x="90" y="-127" as="targetPoint" />
          </mxGeometry>
        </mxCell>
        <mxCell id="1cV_lyGsoiaFO7_TiUyf-121" value="order" style="swimlane;fontStyle=1;align=center;verticalAlign=top;childLayout=stackLayout;horizontal=1;startSize=26;horizontalStack=0;resizeParent=1;resizeParentMax=0;resizeLast=0;collapsible=1;marginBottom=0;whiteSpace=wrap;html=1;" parent="1" vertex="1">
          <mxGeometry x="-890" y="70" width="190" height="280" as="geometry" />
        </mxCell>
        <mxCell id="1cV_lyGsoiaFO7_TiUyf-122" value="+ owner" style="text;strokeColor=none;fillColor=none;align=left;verticalAlign=top;spacingLeft=4;spacingRight=4;overflow=hidden;rotatable=0;points=[[0,0.5],[1,0.5]];portConstraint=eastwest;whiteSpace=wrap;html=1;" parent="1cV_lyGsoiaFO7_TiUyf-121" vertex="1">
          <mxGeometry y="26" width="190" height="26" as="geometry" />
        </mxCell>
        <mxCell id="90ezgeb9ci-VBysLMpnE-1" value="+ time&lt;br&gt;" style="text;strokeColor=none;fillColor=none;align=left;verticalAlign=top;spacingLeft=4;spacingRight=4;overflow=hidden;rotatable=0;points=[[0,0.5],[1,0.5]];portConstraint=eastwest;whiteSpace=wrap;html=1;" parent="1cV_lyGsoiaFO7_TiUyf-121" vertex="1">
          <mxGeometry y="52" width="190" height="26" as="geometry" />
        </mxCell>
        <mxCell id="kKQyqbDqY6j7t5272m3N-1" value="+ cartItem" style="text;strokeColor=none;fillColor=none;align=left;verticalAlign=top;spacingLeft=4;spacingRight=4;overflow=hidden;rotatable=0;points=[[0,0.5],[1,0.5]];portConstraint=eastwest;whiteSpace=wrap;html=1;" vertex="1" parent="1cV_lyGsoiaFO7_TiUyf-121">
          <mxGeometry y="78" width="190" height="26" as="geometry" />
        </mxCell>
        <mxCell id="1cV_lyGsoiaFO7_TiUyf-124" value="+ status : [pending, accepted, rejected, ready, completed]" style="text;strokeColor=none;fillColor=none;align=left;verticalAlign=top;spacingLeft=4;spacingRight=4;overflow=hidden;rotatable=0;points=[[0,0.5],[1,0.5]];portConstraint=eastwest;whiteSpace=wrap;html=1;" parent="1cV_lyGsoiaFO7_TiUyf-121" vertex="1">
          <mxGeometry y="104" width="190" height="38" as="geometry" />
        </mxCell>
        <mxCell id="1cV_lyGsoiaFO7_TiUyf-125" value="" style="line;strokeWidth=1;fillColor=none;align=left;verticalAlign=middle;spacingTop=-1;spacingLeft=3;spacingRight=3;rotatable=0;labelPosition=right;points=[];portConstraint=eastwest;strokeColor=inherit;" parent="1cV_lyGsoiaFO7_TiUyf-121" vertex="1">
          <mxGeometry y="142" width="190" height="8" as="geometry" />
        </mxCell>
        <mxCell id="1cV_lyGsoiaFO7_TiUyf-126" value="+ createOrder()" style="text;strokeColor=none;fillColor=none;align=left;verticalAlign=top;spacingLeft=4;spacingRight=4;overflow=hidden;rotatable=0;points=[[0,0.5],[1,0.5]];portConstraint=eastwest;whiteSpace=wrap;html=1;" parent="1cV_lyGsoiaFO7_TiUyf-121" vertex="1">
          <mxGeometry y="150" width="190" height="26" as="geometry" />
        </mxCell>
        <mxCell id="90ezgeb9ci-VBysLMpnE-28" value="+ accept()" style="text;strokeColor=none;fillColor=none;align=left;verticalAlign=top;spacingLeft=4;spacingRight=4;overflow=hidden;rotatable=0;points=[[0,0.5],[1,0.5]];portConstraint=eastwest;whiteSpace=wrap;html=1;" parent="1cV_lyGsoiaFO7_TiUyf-121" vertex="1">
          <mxGeometry y="176" width="190" height="26" as="geometry" />
        </mxCell>
        <mxCell id="90ezgeb9ci-VBysLMpnE-22" value="+ reject()" style="text;strokeColor=none;fillColor=none;align=left;verticalAlign=top;spacingLeft=4;spacingRight=4;overflow=hidden;rotatable=0;points=[[0,0.5],[1,0.5]];portConstraint=eastwest;whiteSpace=wrap;html=1;" parent="1cV_lyGsoiaFO7_TiUyf-121" vertex="1">
          <mxGeometry y="202" width="190" height="26" as="geometry" />
        </mxCell>
        <mxCell id="90ezgeb9ci-VBysLMpnE-23" value="+ prepared()" style="text;strokeColor=none;fillColor=none;align=left;verticalAlign=top;spacingLeft=4;spacingRight=4;overflow=hidden;rotatable=0;points=[[0,0.5],[1,0.5]];portConstraint=eastwest;whiteSpace=wrap;html=1;" parent="1cV_lyGsoiaFO7_TiUyf-121" vertex="1">
          <mxGeometry y="228" width="190" height="26" as="geometry" />
        </mxCell>
        <mxCell id="90ezgeb9ci-VBysLMpnE-24" value="+ completed()" style="text;strokeColor=none;fillColor=none;align=left;verticalAlign=top;spacingLeft=4;spacingRight=4;overflow=hidden;rotatable=0;points=[[0,0.5],[1,0.5]];portConstraint=eastwest;whiteSpace=wrap;html=1;" parent="1cV_lyGsoiaFO7_TiUyf-121" vertex="1">
          <mxGeometry y="254" width="190" height="26" as="geometry" />
        </mxCell>
        <mxCell id="90ezgeb9ci-VBysLMpnE-9" value="" style="endArrow=open;endSize=12;dashed=1;html=1;rounded=0;" parent="1" source="1cV_lyGsoiaFO7_TiUyf-23" target="1cV_lyGsoiaFO7_TiUyf-46" edge="1">
          <mxGeometry width="160" relative="1" as="geometry">
            <mxPoint x="3" y="-80" as="sourcePoint" />
            <mxPoint x="1" y="-214" as="targetPoint" />
            <Array as="points">
              <mxPoint x="190" y="-190" />
            </Array>
          </mxGeometry>
        </mxCell>
        <mxCell id="90ezgeb9ci-VBysLMpnE-12" value="Category" style="swimlane;fontStyle=1;align=center;verticalAlign=top;childLayout=stackLayout;horizontal=1;startSize=26;horizontalStack=0;resizeParent=1;resizeParentMax=0;resizeLast=0;collapsible=1;marginBottom=0;whiteSpace=wrap;html=1;" parent="1" vertex="1">
          <mxGeometry x="-195" y="-350" width="170" height="138" as="geometry" />
        </mxCell>
        <mxCell id="90ezgeb9ci-VBysLMpnE-16" value="+ id" style="text;strokeColor=none;fillColor=none;align=left;verticalAlign=top;spacingLeft=4;spacingRight=4;overflow=hidden;rotatable=0;points=[[0,0.5],[1,0.5]];portConstraint=eastwest;whiteSpace=wrap;html=1;" parent="90ezgeb9ci-VBysLMpnE-12" vertex="1">
          <mxGeometry y="26" width="170" height="26" as="geometry" />
        </mxCell>
        <mxCell id="90ezgeb9ci-VBysLMpnE-13" value="+ name" style="text;strokeColor=none;fillColor=none;align=left;verticalAlign=top;spacingLeft=4;spacingRight=4;overflow=hidden;rotatable=0;points=[[0,0.5],[1,0.5]];portConstraint=eastwest;whiteSpace=wrap;html=1;" parent="90ezgeb9ci-VBysLMpnE-12" vertex="1">
          <mxGeometry y="52" width="170" height="26" as="geometry" />
        </mxCell>
        <mxCell id="90ezgeb9ci-VBysLMpnE-14" value="" style="line;strokeWidth=1;fillColor=none;align=left;verticalAlign=middle;spacingTop=-1;spacingLeft=3;spacingRight=3;rotatable=0;labelPosition=right;points=[];portConstraint=eastwest;strokeColor=inherit;" parent="90ezgeb9ci-VBysLMpnE-12" vertex="1">
          <mxGeometry y="78" width="170" height="8" as="geometry" />
        </mxCell>
        <mxCell id="90ezgeb9ci-VBysLMpnE-17" value="+ remove()" style="text;strokeColor=none;fillColor=none;align=left;verticalAlign=top;spacingLeft=4;spacingRight=4;overflow=hidden;rotatable=0;points=[[0,0.5],[1,0.5]];portConstraint=eastwest;whiteSpace=wrap;html=1;" parent="90ezgeb9ci-VBysLMpnE-12" vertex="1">
          <mxGeometry y="86" width="170" height="26" as="geometry" />
        </mxCell>
        <mxCell id="90ezgeb9ci-VBysLMpnE-18" value="+ update()" style="text;strokeColor=none;fillColor=none;align=left;verticalAlign=top;spacingLeft=4;spacingRight=4;overflow=hidden;rotatable=0;points=[[0,0.5],[1,0.5]];portConstraint=eastwest;whiteSpace=wrap;html=1;" parent="90ezgeb9ci-VBysLMpnE-12" vertex="1">
          <mxGeometry y="112" width="170" height="26" as="geometry" />
        </mxCell>
        <mxCell id="90ezgeb9ci-VBysLMpnE-34" value="PaymentService" style="swimlane;fontStyle=1;align=center;verticalAlign=top;childLayout=stackLayout;horizontal=1;startSize=26;horizontalStack=0;resizeParent=1;resizeParentMax=0;resizeLast=0;collapsible=1;marginBottom=0;whiteSpace=wrap;html=1;" parent="1" vertex="1">
          <mxGeometry x="-410" y="-530" width="170" height="190" as="geometry" />
        </mxCell>
        <mxCell id="90ezgeb9ci-VBysLMpnE-35" value="+ wallet" style="text;strokeColor=none;fillColor=none;align=left;verticalAlign=top;spacingLeft=4;spacingRight=4;overflow=hidden;rotatable=0;points=[[0,0.5],[1,0.5]];portConstraint=eastwest;whiteSpace=wrap;html=1;" parent="90ezgeb9ci-VBysLMpnE-34" vertex="1">
          <mxGeometry y="26" width="170" height="26" as="geometry" />
        </mxCell>
        <mxCell id="90ezgeb9ci-VBysLMpnE-36" value="+ user" style="text;strokeColor=none;fillColor=none;align=left;verticalAlign=top;spacingLeft=4;spacingRight=4;overflow=hidden;rotatable=0;points=[[0,0.5],[1,0.5]];portConstraint=eastwest;whiteSpace=wrap;html=1;" parent="90ezgeb9ci-VBysLMpnE-34" vertex="1">
          <mxGeometry y="52" width="170" height="26" as="geometry" />
        </mxCell>
        <mxCell id="90ezgeb9ci-VBysLMpnE-37" value="" style="line;strokeWidth=1;fillColor=none;align=left;verticalAlign=middle;spacingTop=-1;spacingLeft=3;spacingRight=3;rotatable=0;labelPosition=right;points=[];portConstraint=eastwest;strokeColor=inherit;" parent="90ezgeb9ci-VBysLMpnE-34" vertex="1">
          <mxGeometry y="78" width="170" height="8" as="geometry" />
        </mxCell>
        <mxCell id="90ezgeb9ci-VBysLMpnE-38" value="+ addWallet()" style="text;strokeColor=none;fillColor=none;align=left;verticalAlign=top;spacingLeft=4;spacingRight=4;overflow=hidden;rotatable=0;points=[[0,0.5],[1,0.5]];portConstraint=eastwest;whiteSpace=wrap;html=1;" parent="90ezgeb9ci-VBysLMpnE-34" vertex="1">
          <mxGeometry y="86" width="170" height="26" as="geometry" />
        </mxCell>
        <mxCell id="90ezgeb9ci-VBysLMpnE-40" value="+ withDraw()" style="text;strokeColor=none;fillColor=none;align=left;verticalAlign=top;spacingLeft=4;spacingRight=4;overflow=hidden;rotatable=0;points=[[0,0.5],[1,0.5]];portConstraint=eastwest;whiteSpace=wrap;html=1;" parent="90ezgeb9ci-VBysLMpnE-34" vertex="1">
          <mxGeometry y="112" width="170" height="26" as="geometry" />
        </mxCell>
        <mxCell id="90ezgeb9ci-VBysLMpnE-39" value="+ createStripeAccount()" style="text;strokeColor=none;fillColor=none;align=left;verticalAlign=top;spacingLeft=4;spacingRight=4;overflow=hidden;rotatable=0;points=[[0,0.5],[1,0.5]];portConstraint=eastwest;whiteSpace=wrap;html=1;" parent="90ezgeb9ci-VBysLMpnE-34" vertex="1">
          <mxGeometry y="138" width="170" height="26" as="geometry" />
        </mxCell>
        <mxCell id="90ezgeb9ci-VBysLMpnE-43" value="+ payment()" style="text;strokeColor=none;fillColor=none;align=left;verticalAlign=top;spacingLeft=4;spacingRight=4;overflow=hidden;rotatable=0;points=[[0,0.5],[1,0.5]];portConstraint=eastwest;whiteSpace=wrap;html=1;" parent="90ezgeb9ci-VBysLMpnE-34" vertex="1">
          <mxGeometry y="164" width="170" height="26" as="geometry" />
        </mxCell>
        <mxCell id="90ezgeb9ci-VBysLMpnE-42" value="" style="endArrow=open;endFill=1;endSize=12;html=1;rounded=0;fontSize=12;curved=1;" parent="1" source="1cV_lyGsoiaFO7_TiUyf-100" target="90ezgeb9ci-VBysLMpnE-34" edge="1">
          <mxGeometry width="160" relative="1" as="geometry">
            <mxPoint x="-850" y="-290" as="sourcePoint" />
            <mxPoint x="-690" y="-290" as="targetPoint" />
          </mxGeometry>
        </mxCell>
        <mxCell id="90ezgeb9ci-VBysLMpnE-44" value="" style="endArrow=open;endSize=12;dashed=1;html=1;rounded=0;" parent="1" source="1cV_lyGsoiaFO7_TiUyf-100" target="1cV_lyGsoiaFO7_TiUyf-1" edge="1">
          <mxGeometry width="160" relative="1" as="geometry">
            <mxPoint x="-350" y="143" as="sourcePoint" />
            <mxPoint x="-140" y="98" as="targetPoint" />
          </mxGeometry>
        </mxCell>
        <mxCell id="90ezgeb9ci-VBysLMpnE-52" style="edgeStyle=none;curved=1;rounded=0;orthogonalLoop=1;jettySize=auto;html=1;exitX=0.25;exitY=0;exitDx=0;exitDy=0;fontSize=12;startSize=8;endSize=8;" parent="1" source="1cV_lyGsoiaFO7_TiUyf-85" target="1cV_lyGsoiaFO7_TiUyf-85" edge="1">
          <mxGeometry relative="1" as="geometry" />
        </mxCell>
        <mxCell id="90ezgeb9ci-VBysLMpnE-55" value="" style="endArrow=open;endFill=1;endSize=12;html=1;rounded=0;fontSize=12;curved=1;" parent="1" source="1cV_lyGsoiaFO7_TiUyf-100" target="1cV_lyGsoiaFO7_TiUyf-121" edge="1">
          <mxGeometry width="160" relative="1" as="geometry">
            <mxPoint x="-410" y="-20" as="sourcePoint" />
            <mxPoint x="-250" y="-20" as="targetPoint" />
          </mxGeometry>
        </mxCell>
        <mxCell id="kKQyqbDqY6j7t5272m3N-2" value="" style="endArrow=open;endSize=12;dashed=1;html=1;rounded=0;" edge="1" parent="1" source="1cV_lyGsoiaFO7_TiUyf-121" target="1cV_lyGsoiaFO7_TiUyf-85">
          <mxGeometry width="160" relative="1" as="geometry">
            <mxPoint x="-380" y="-115" as="sourcePoint" />
            <mxPoint x="-140" y="29" as="targetPoint" />
            <Array as="points" />
          </mxGeometry>
        </mxCell>
        <mxCell id="kKQyqbDqY6j7t5272m3N-4" value="" style="endArrow=open;endSize=12;dashed=1;html=1;rounded=0;" edge="1" parent="1" source="1cV_lyGsoiaFO7_TiUyf-100" target="1cV_lyGsoiaFO7_TiUyf-85">
          <mxGeometry width="160" relative="1" as="geometry">
            <mxPoint x="-460" y="-138" as="sourcePoint" />
            <mxPoint x="-185" y="19" as="targetPoint" />
          </mxGeometry>
        </mxCell>
        <mxCell id="kKQyqbDqY6j7t5272m3N-5" value="Cart" style="swimlane;fontStyle=1;align=center;verticalAlign=top;childLayout=stackLayout;horizontal=1;startSize=26;horizontalStack=0;resizeParent=1;resizeParentMax=0;resizeLast=0;collapsible=1;marginBottom=0;whiteSpace=wrap;html=1;" vertex="1" parent="1">
          <mxGeometry x="-1030" y="-422" width="190" height="164" as="geometry" />
        </mxCell>
        <mxCell id="kKQyqbDqY6j7t5272m3N-6" value="+ owner" style="text;strokeColor=none;fillColor=none;align=left;verticalAlign=top;spacingLeft=4;spacingRight=4;overflow=hidden;rotatable=0;points=[[0,0.5],[1,0.5]];portConstraint=eastwest;whiteSpace=wrap;html=1;" vertex="1" parent="kKQyqbDqY6j7t5272m3N-5">
          <mxGeometry y="26" width="190" height="26" as="geometry" />
        </mxCell>
        <mxCell id="kKQyqbDqY6j7t5272m3N-7" value="+ cartItems: [cartItem]" style="text;strokeColor=none;fillColor=none;align=left;verticalAlign=top;spacingLeft=4;spacingRight=4;overflow=hidden;rotatable=0;points=[[0,0.5],[1,0.5]];portConstraint=eastwest;whiteSpace=wrap;html=1;" vertex="1" parent="kKQyqbDqY6j7t5272m3N-5">
          <mxGeometry y="52" width="190" height="26" as="geometry" />
        </mxCell>
        <mxCell id="kKQyqbDqY6j7t5272m3N-13" value="+ offers" style="text;strokeColor=none;fillColor=none;align=left;verticalAlign=top;spacingLeft=4;spacingRight=4;overflow=hidden;rotatable=0;points=[[0,0.5],[1,0.5]];portConstraint=eastwest;whiteSpace=wrap;html=1;" vertex="1" parent="kKQyqbDqY6j7t5272m3N-5">
          <mxGeometry y="78" width="190" height="26" as="geometry" />
        </mxCell>
        <mxCell id="kKQyqbDqY6j7t5272m3N-14" value="" style="line;strokeWidth=1;fillColor=none;align=left;verticalAlign=middle;spacingTop=-1;spacingLeft=3;spacingRight=3;rotatable=0;labelPosition=right;points=[];portConstraint=eastwest;strokeColor=inherit;" vertex="1" parent="kKQyqbDqY6j7t5272m3N-5">
          <mxGeometry y="104" width="190" height="8" as="geometry" />
        </mxCell>
        <mxCell id="kKQyqbDqY6j7t5272m3N-15" value="+ add()" style="text;strokeColor=none;fillColor=none;align=left;verticalAlign=top;spacingLeft=4;spacingRight=4;overflow=hidden;rotatable=0;points=[[0,0.5],[1,0.5]];portConstraint=eastwest;whiteSpace=wrap;html=1;" vertex="1" parent="kKQyqbDqY6j7t5272m3N-5">
          <mxGeometry y="112" width="190" height="26" as="geometry" />
        </mxCell>
        <mxCell id="kKQyqbDqY6j7t5272m3N-17" value="+ delete()" style="text;strokeColor=none;fillColor=none;align=left;verticalAlign=top;spacingLeft=4;spacingRight=4;overflow=hidden;rotatable=0;points=[[0,0.5],[1,0.5]];portConstraint=eastwest;whiteSpace=wrap;html=1;" vertex="1" parent="kKQyqbDqY6j7t5272m3N-5">
          <mxGeometry y="138" width="190" height="26" as="geometry" />
        </mxCell>
        <mxCell id="kKQyqbDqY6j7t5272m3N-18" value="" style="endArrow=diamondThin;endFill=0;endSize=24;html=1;rounded=0;" edge="1" parent="1" source="1cV_lyGsoiaFO7_TiUyf-100" target="kKQyqbDqY6j7t5272m3N-5">
          <mxGeometry width="160" relative="1" as="geometry">
            <mxPoint x="-167" y="240" as="sourcePoint" />
            <mxPoint x="-209" y="350" as="targetPoint" />
          </mxGeometry>
        </mxCell>
        <mxCell id="kKQyqbDqY6j7t5272m3N-19" value="Coupon" style="swimlane;fontStyle=1;align=center;verticalAlign=top;childLayout=stackLayout;horizontal=1;startSize=26;horizontalStack=0;resizeParent=1;resizeParentMax=0;resizeLast=0;collapsible=1;marginBottom=0;whiteSpace=wrap;html=1;" vertex="1" parent="1">
          <mxGeometry x="-930" y="-762" width="190" height="222" as="geometry" />
        </mxCell>
        <mxCell id="kKQyqbDqY6j7t5272m3N-20" value="+ name" style="text;strokeColor=none;fillColor=none;align=left;verticalAlign=top;spacingLeft=4;spacingRight=4;overflow=hidden;rotatable=0;points=[[0,0.5],[1,0.5]];portConstraint=eastwest;whiteSpace=wrap;html=1;" vertex="1" parent="kKQyqbDqY6j7t5272m3N-19">
          <mxGeometry y="26" width="190" height="26" as="geometry" />
        </mxCell>
        <mxCell id="kKQyqbDqY6j7t5272m3N-21" value="+ description" style="text;strokeColor=none;fillColor=none;align=left;verticalAlign=top;spacingLeft=4;spacingRight=4;overflow=hidden;rotatable=0;points=[[0,0.5],[1,0.5]];portConstraint=eastwest;whiteSpace=wrap;html=1;" vertex="1" parent="kKQyqbDqY6j7t5272m3N-19">
          <mxGeometry y="52" width="190" height="26" as="geometry" />
        </mxCell>
        <mxCell id="kKQyqbDqY6j7t5272m3N-22" value="+ rules: Rule[]&amp;nbsp;" style="text;strokeColor=none;fillColor=none;align=left;verticalAlign=top;spacingLeft=4;spacingRight=4;overflow=hidden;rotatable=0;points=[[0,0.5],[1,0.5]];portConstraint=eastwest;whiteSpace=wrap;html=1;" vertex="1" parent="kKQyqbDqY6j7t5272m3N-19">
          <mxGeometry y="78" width="190" height="32" as="geometry" />
        </mxCell>
        <mxCell id="kKQyqbDqY6j7t5272m3N-44" value="+ image" style="text;strokeColor=none;fillColor=none;align=left;verticalAlign=top;spacingLeft=4;spacingRight=4;overflow=hidden;rotatable=0;points=[[0,0.5],[1,0.5]];portConstraint=eastwest;whiteSpace=wrap;html=1;" vertex="1" parent="kKQyqbDqY6j7t5272m3N-19">
          <mxGeometry y="110" width="190" height="26" as="geometry" />
        </mxCell>
        <mxCell id="kKQyqbDqY6j7t5272m3N-46" value="+ discount" style="text;strokeColor=none;fillColor=none;align=left;verticalAlign=top;spacingLeft=4;spacingRight=4;overflow=hidden;rotatable=0;points=[[0,0.5],[1,0.5]];portConstraint=eastwest;whiteSpace=wrap;html=1;" vertex="1" parent="kKQyqbDqY6j7t5272m3N-19">
          <mxGeometry y="136" width="190" height="26" as="geometry" />
        </mxCell>
        <mxCell id="kKQyqbDqY6j7t5272m3N-24" value="" style="line;strokeWidth=1;fillColor=none;align=left;verticalAlign=middle;spacingTop=-1;spacingLeft=3;spacingRight=3;rotatable=0;labelPosition=right;points=[];portConstraint=eastwest;strokeColor=inherit;" vertex="1" parent="kKQyqbDqY6j7t5272m3N-19">
          <mxGeometry y="162" width="190" height="8" as="geometry" />
        </mxCell>
        <mxCell id="kKQyqbDqY6j7t5272m3N-25" value="+ update()" style="text;strokeColor=none;fillColor=none;align=left;verticalAlign=top;spacingLeft=4;spacingRight=4;overflow=hidden;rotatable=0;points=[[0,0.5],[1,0.5]];portConstraint=eastwest;whiteSpace=wrap;html=1;" vertex="1" parent="kKQyqbDqY6j7t5272m3N-19">
          <mxGeometry y="170" width="190" height="26" as="geometry" />
        </mxCell>
        <mxCell id="kKQyqbDqY6j7t5272m3N-26" value="+ processEveryRule()" style="text;strokeColor=none;fillColor=none;align=left;verticalAlign=top;spacingLeft=4;spacingRight=4;overflow=hidden;rotatable=0;points=[[0,0.5],[1,0.5]];portConstraint=eastwest;whiteSpace=wrap;html=1;" vertex="1" parent="kKQyqbDqY6j7t5272m3N-19">
          <mxGeometry y="196" width="190" height="26" as="geometry" />
        </mxCell>
        <mxCell id="kKQyqbDqY6j7t5272m3N-28" value="Discount" style="swimlane;fontStyle=1;align=center;verticalAlign=top;childLayout=stackLayout;horizontal=1;startSize=26;horizontalStack=0;resizeParent=1;resizeParentMax=0;resizeLast=0;collapsible=1;marginBottom=0;whiteSpace=wrap;html=1;" vertex="1" parent="1">
          <mxGeometry x="-1390" y="-400" width="190" height="138" as="geometry" />
        </mxCell>
        <mxCell id="kKQyqbDqY6j7t5272m3N-29" value="+ name" style="text;strokeColor=none;fillColor=none;align=left;verticalAlign=top;spacingLeft=4;spacingRight=4;overflow=hidden;rotatable=0;points=[[0,0.5],[1,0.5]];portConstraint=eastwest;whiteSpace=wrap;html=1;" vertex="1" parent="kKQyqbDqY6j7t5272m3N-28">
          <mxGeometry y="26" width="190" height="26" as="geometry" />
        </mxCell>
        <mxCell id="kKQyqbDqY6j7t5272m3N-30" value="+ conditions: Condition[]" style="text;strokeColor=none;fillColor=none;align=left;verticalAlign=top;spacingLeft=4;spacingRight=4;overflow=hidden;rotatable=0;points=[[0,0.5],[1,0.5]];portConstraint=eastwest;whiteSpace=wrap;html=1;" vertex="1" parent="kKQyqbDqY6j7t5272m3N-28">
          <mxGeometry y="52" width="190" height="26" as="geometry" />
        </mxCell>
        <mxCell id="kKQyqbDqY6j7t5272m3N-33" value="" style="line;strokeWidth=1;fillColor=none;align=left;verticalAlign=middle;spacingTop=-1;spacingLeft=3;spacingRight=3;rotatable=0;labelPosition=right;points=[];portConstraint=eastwest;strokeColor=inherit;" vertex="1" parent="kKQyqbDqY6j7t5272m3N-28">
          <mxGeometry y="78" width="190" height="8" as="geometry" />
        </mxCell>
        <mxCell id="kKQyqbDqY6j7t5272m3N-34" value="+ processEveryCondition()" style="text;strokeColor=none;fillColor=none;align=left;verticalAlign=top;spacingLeft=4;spacingRight=4;overflow=hidden;rotatable=0;points=[[0,0.5],[1,0.5]];portConstraint=eastwest;whiteSpace=wrap;html=1;" vertex="1" parent="kKQyqbDqY6j7t5272m3N-28">
          <mxGeometry y="86" width="190" height="26" as="geometry" />
        </mxCell>
        <mxCell id="kKQyqbDqY6j7t5272m3N-35" value="+ calculateDiscountAmount()" style="text;strokeColor=none;fillColor=none;align=left;verticalAlign=top;spacingLeft=4;spacingRight=4;overflow=hidden;rotatable=0;points=[[0,0.5],[1,0.5]];portConstraint=eastwest;whiteSpace=wrap;html=1;" vertex="1" parent="kKQyqbDqY6j7t5272m3N-28">
          <mxGeometry y="112" width="190" height="26" as="geometry" />
        </mxCell>
        <mxCell id="kKQyqbDqY6j7t5272m3N-37" value="Rule" style="swimlane;fontStyle=1;align=center;verticalAlign=top;childLayout=stackLayout;horizontal=1;startSize=26;horizontalStack=0;resizeParent=1;resizeParentMax=0;resizeLast=0;collapsible=1;marginBottom=0;whiteSpace=wrap;html=1;fillColor=#1ba1e2;strokeColor=#006EAF;fontColor=#ffffff;" vertex="1" parent="1">
          <mxGeometry x="-1180" y="-840" width="160" height="78" as="geometry" />
        </mxCell>
        <mxCell id="kKQyqbDqY6j7t5272m3N-38" value="+ name" style="text;strokeColor=none;fillColor=none;align=left;verticalAlign=top;spacingLeft=4;spacingRight=4;overflow=hidden;rotatable=0;points=[[0,0.5],[1,0.5]];portConstraint=eastwest;whiteSpace=wrap;html=1;" vertex="1" parent="kKQyqbDqY6j7t5272m3N-37">
          <mxGeometry y="26" width="160" height="26" as="geometry" />
        </mxCell>
        <mxCell id="kKQyqbDqY6j7t5272m3N-39" value="+ value" style="text;strokeColor=none;fillColor=none;align=left;verticalAlign=top;spacingLeft=4;spacingRight=4;overflow=hidden;rotatable=0;points=[[0,0.5],[1,0.5]];portConstraint=eastwest;whiteSpace=wrap;html=1;" vertex="1" parent="kKQyqbDqY6j7t5272m3N-37">
          <mxGeometry y="52" width="160" height="26" as="geometry" />
        </mxCell>
        <mxCell id="kKQyqbDqY6j7t5272m3N-45" value="" style="endArrow=diamondThin;endFill=1;endSize=24;html=1;rounded=0;fontSize=12;curved=1;" edge="1" parent="1" source="kKQyqbDqY6j7t5272m3N-37" target="kKQyqbDqY6j7t5272m3N-19">
          <mxGeometry width="160" relative="1" as="geometry">
            <mxPoint x="-1430" y="-370" as="sourcePoint" />
            <mxPoint x="-1270" y="-370" as="targetPoint" />
          </mxGeometry>
        </mxCell>
        <mxCell id="kKQyqbDqY6j7t5272m3N-48" value="" style="endArrow=open;endFill=1;endSize=12;html=1;rounded=0;fontSize=12;curved=1;" edge="1" parent="1" source="1cV_lyGsoiaFO7_TiUyf-100" target="kKQyqbDqY6j7t5272m3N-19">
          <mxGeometry width="160" relative="1" as="geometry">
            <mxPoint x="-547" y="-360" as="sourcePoint" />
            <mxPoint x="-400" y="-401" as="targetPoint" />
          </mxGeometry>
        </mxCell>
        <mxCell id="kKQyqbDqY6j7t5272m3N-49" value="Condition" style="swimlane;fontStyle=1;align=center;verticalAlign=top;childLayout=stackLayout;horizontal=1;startSize=26;horizontalStack=0;resizeParent=1;resizeParentMax=0;resizeLast=0;collapsible=1;marginBottom=0;whiteSpace=wrap;html=1;fillColor=#1ba1e2;strokeColor=#006EAF;fontColor=#ffffff;" vertex="1" parent="1">
          <mxGeometry x="-1640" y="-410" width="160" height="78" as="geometry" />
        </mxCell>
        <mxCell id="kKQyqbDqY6j7t5272m3N-50" value="+ name" style="text;strokeColor=none;fillColor=none;align=left;verticalAlign=top;spacingLeft=4;spacingRight=4;overflow=hidden;rotatable=0;points=[[0,0.5],[1,0.5]];portConstraint=eastwest;whiteSpace=wrap;html=1;" vertex="1" parent="kKQyqbDqY6j7t5272m3N-49">
          <mxGeometry y="26" width="160" height="26" as="geometry" />
        </mxCell>
        <mxCell id="kKQyqbDqY6j7t5272m3N-51" value="+ value" style="text;strokeColor=none;fillColor=none;align=left;verticalAlign=top;spacingLeft=4;spacingRight=4;overflow=hidden;rotatable=0;points=[[0,0.5],[1,0.5]];portConstraint=eastwest;whiteSpace=wrap;html=1;" vertex="1" parent="kKQyqbDqY6j7t5272m3N-49">
          <mxGeometry y="52" width="160" height="26" as="geometry" />
        </mxCell>
        <mxCell id="kKQyqbDqY6j7t5272m3N-52" value="" style="endArrow=diamondThin;endFill=1;endSize=24;html=1;rounded=0;fontSize=12;curved=1;" edge="1" parent="1" source="kKQyqbDqY6j7t5272m3N-49" target="kKQyqbDqY6j7t5272m3N-28">
          <mxGeometry width="160" relative="1" as="geometry">
            <mxPoint x="-1021" y="-752" as="sourcePoint" />
            <mxPoint x="-920" y="-695" as="targetPoint" />
          </mxGeometry>
        </mxCell>
        <mxCell id="kKQyqbDqY6j7t5272m3N-53" value="" style="endArrow=open;endFill=1;endSize=12;html=1;rounded=0;fontSize=12;curved=1;" edge="1" parent="1" source="kKQyqbDqY6j7t5272m3N-5" target="kKQyqbDqY6j7t5272m3N-28">
          <mxGeometry width="160" relative="1" as="geometry">
            <mxPoint x="-650" y="-350" as="sourcePoint" />
            <mxPoint x="-758" y="-530" as="targetPoint" />
          </mxGeometry>
        </mxCell>
      </root>
    </mxGraphModel>
  </diagram>
</mxfile>
